<?xml version="1.0" encoding="UTF-8"?>
<svg id="Layer_1" data-name="Layer 1" xmlns="http://www.w3.org/2000/svg" viewBox="0 0 127.42 53.37">
  <defs>
    <style>
      .cls-1 {
        fill: #fff;
      }

      .cls-2 {
        fill: #fed607;
      }
    </style>
  </defs>
  <path class="cls-2" d="M3.93.13l8.59,7.12c.31.26.7.39,1.1.39h12.36v19.98c0,.4.14.79.39,1.1l3.35,4.04,3.36-3.97c.26-.31.41-.7.41-1.11v-7.95h9.38l11.47-7.6h-20.74v-4.49h21.69c.66,0,1.27-.38,1.55-.98l3.04-6.4L3.93.13Z"/>
  <g>
    <path class="cls-1" d="M0,.33l7.41,18.32c.26.65.89,1.07,1.59,1.07h14.08v-7.63l-7.62-.08c-.38,0-.74-.13-1.04-.37L0,.33Z"/>
    <path class="cls-1" d="M52.64,16.72l-10.67,7.06c-.28.19-.5.45-.63.76l-1.31,3.1c-.07.16-.16.31-.28.45l-9.94,11.64-6.81-7.79h-9.99l16.71,19.64,16.14-18.74c.05-.06.09-.11.13-.17l.57-.86c.06-.1.12-.2.16-.31l5.92-14.77Z"/>
  </g>
  <g>
    <path class="cls-1" d="M69.59,2.1h-3.55V0h9.34v2.1h-3.55v10.19h-2.24V2.1Z"/>
    <path class="cls-1" d="M76.76,0h2.24v5.09h4.83V0h2.24v12.3h-2.24v-5.11h-4.83v5.11h-2.24V0Z"/>
    <path class="cls-1" d="M87.84,0h8.28v2.1h-6.05v3.01h5.45v2.1h-5.45v2.99h6.05v2.1h-8.28V0Z"/>
    <path class="cls-1" d="M66.41,20.49h8.28v2.1h-6.05v3.01h5.45v2.1h-5.45v5.09h-2.24v-12.3Z"/>
    <path class="cls-1" d="M80.69,32.87c-.62,0-1.2-.09-1.76-.28-.56-.19-1.04-.47-1.46-.84s-.75-.83-1-1.37c-.25-.54-.38-1.16-.38-1.87v-8.03h2.24v8.03c0,.34.06.65.18.93.12.28.28.51.5.71.21.19.46.34.74.44s.6.15.94.15.65-.05.94-.15.53-.25.74-.44c.21-.19.38-.43.5-.71.12-.28.18-.59.18-.93v-8.03h2.24v8.03c0,.71-.12,1.33-.37,1.87-.25.54-.58,1-1,1.37s-.91.65-1.47.84c-.56.19-1.14.28-1.76.28Z"/>
    <path class="cls-1" d="M90.23,22.59h-3.55v-2.1h9.34v2.1h-3.55v10.19h-2.24v-10.19Z"/>
    <path class="cls-1" d="M102,32.87c-.62,0-1.2-.09-1.76-.28-.56-.19-1.04-.47-1.46-.84s-.75-.83-1-1.37c-.25-.54-.38-1.16-.38-1.87v-8.03h2.24v8.03c0,.34.06.65.18.93.12.28.28.51.5.71.21.19.46.34.74.44s.6.15.94.15.65-.05.94-.15.53-.25.74-.44c.21-.19.38-.43.5-.71.12-.28.18-.59.18-.93v-8.03h2.24v8.03c0,.71-.12,1.33-.37,1.87-.25.54-.58,1-1,1.37s-.91.65-1.47.84c-.56.19-1.14.28-1.76.28Z"/>
    <path class="cls-1" d="M108.37,20.49h5.45c.58,0,1.1.08,1.56.23.46.15.86.37,1.19.65.33.28.58.62.76,1.02.18.4.26.84.26,1.33,0,.44-.07.83-.2,1.16-.13.33-.3.62-.5.87-.21.25-.42.47-.65.66-.23.19-.44.36-.65.52-.21.16-.37.31-.5.46-.13.15-.2.31-.2.48,0,.21.1.47.29.8l2.49,4.12h-2.53l-1.96-3.24c-.39-.63-.58-1.2-.58-1.71,0-.33.07-.63.21-.9.14-.27.31-.51.51-.73.21-.22.42-.43.66-.63.23-.2.45-.4.66-.6.21-.2.38-.4.51-.62.14-.21.21-.44.21-.69,0-.34-.13-.61-.4-.79-.27-.19-.65-.28-1.14-.28h-3.21v10.19h-2.24v-12.3Z"/>
    <path class="cls-1" d="M119.14,20.49h8.28v2.1h-6.05v3.01h5.45v2.1h-5.45v2.99h6.05v2.1h-8.28v-12.3Z"/>
    <path class="cls-1" d="M66.22,51.18h4.75c.47,0,.84-.12,1.11-.37.27-.24.41-.58.41-1,0-.36-.11-.67-.32-.92-.21-.25-.51-.42-.9-.5l-2.3-.48c-.93-.21-1.66-.61-2.17-1.22-.51-.61-.77-1.37-.77-2.28,0-.52.09-1,.26-1.42.18-.42.43-.78.75-1.08.32-.3.72-.53,1.19-.69.47-.16.98-.24,1.55-.24h4.75v2.1h-4.75c-.47,0-.84.12-1.11.37-.27.25-.41.57-.41.98,0,.36.11.67.32.92.22.25.52.42.91.5l2.31.5c.92.19,1.64.59,2.15,1.2.51.61.77,1.37.77,2.28,0,1.07-.34,1.91-1.01,2.53-.67.62-1.59.92-2.75.92h-4.75v-2.1Z"/>
    <path class="cls-1" d="M79.3,43.08h-3.55v-2.1h9.34v2.1h-3.55v10.19h-2.24v-10.19Z"/>
    <path class="cls-1" d="M91.07,53.37c-.62,0-1.2-.09-1.76-.28-.56-.19-1.04-.47-1.46-.84s-.75-.83-1-1.37c-.25-.54-.38-1.16-.38-1.87v-8.03h2.24v8.03c0,.34.06.65.18.93.12.28.28.51.5.71.21.19.46.34.74.44s.6.15.94.15.65-.05.94-.15.53-.25.74-.44c.21-.19.38-.43.5-.71.12-.28.18-.59.18-.93v-8.03h2.24v8.03c0,.71-.12,1.33-.37,1.87-.25.54-.58,1-1,1.37s-.91.65-1.47.84c-.56.19-1.14.28-1.76.28Z"/>
    <path class="cls-1" d="M97.44,40.98h3.62c.97,0,1.83.17,2.58.5.75.34,1.39.79,1.9,1.35.52.56.91,1.22,1.18,1.96.27.74.4,1.51.4,2.32s-.13,1.59-.4,2.33c-.27.75-.66,1.4-1.18,1.97-.52.57-1.15,1.02-1.9,1.36-.75.34-1.61.5-2.58.5h-3.62v-12.3ZM101.06,51.18c.6,0,1.14-.11,1.61-.33.47-.22.87-.52,1.2-.89s.58-.8.75-1.29c.18-.49.26-1.01.26-1.55s-.09-1.06-.26-1.55c-.18-.48-.43-.91-.75-1.28-.32-.37-.72-.66-1.2-.88-.47-.22-1.01-.32-1.61-.32h-1.38v8.09h1.38Z"/>
    <path class="cls-1" d="M108.52,40.98h2.24v12.3h-2.24v-12.3Z"/>
    <path class="cls-1" d="M118.22,53.37c-.89,0-1.71-.16-2.45-.47s-1.39-.75-1.92-1.3c-.54-.55-.95-1.21-1.26-1.98-.3-.77-.45-1.61-.45-2.54s.15-1.74.44-2.5.71-1.41,1.26-1.96c.54-.55,1.18-.97,1.93-1.27.75-.3,1.56-.45,2.45-.45s1.7.15,2.44.45c.74.3,1.38.73,1.92,1.27.54.55.96,1.2,1.25,1.96s.44,1.59.44,2.5-.15,1.77-.45,2.54c-.3.77-.72,1.43-1.25,1.98-.54.55-1.17.98-1.91,1.3s-1.55.47-2.44.47ZM118.22,51.26c.57,0,1.09-.1,1.55-.31.47-.2.87-.49,1.2-.86.34-.37.6-.81.79-1.32.19-.51.28-1.08.28-1.71s-.09-1.16-.27-1.66c-.18-.5-.44-.93-.78-1.29-.34-.36-.74-.63-1.21-.83-.47-.19-.99-.29-1.56-.29s-1.11.1-1.58.29c-.47.19-.88.47-1.21.83-.34.36-.59.79-.78,1.29-.18.5-.27,1.05-.27,1.66s.09,1.2.28,1.71c.19.51.45.95.79,1.32.34.37.74.66,1.21.86.47.21.99.31,1.56.31Z"/>
  </g>
</svg>