<?xml version="1.0" encoding="UTF-8"?>
<svg id="Layer_1" data-name="Layer 1" xmlns="http://www.w3.org/2000/svg" xmlns:xlink="http://www.w3.org/1999/xlink" viewBox="0 0 102.11 45.13">
  <defs>
    <style>
      .cls-1 {
        fill: #f47e30;
      }

      .cls-2 {
        fill: url(#linear-gradient);
      }
    </style>
    <linearGradient id="linear-gradient" x1="20.85" y1="52.76" x2="81.25" y2="-7.64" gradientUnits="userSpaceOnUse">
      <stop offset="0" stop-color="#f47e30"/>
      <stop offset=".04" stop-color="#f47f32"/>
      <stop offset=".07" stop-color="#f4853b"/>
      <stop offset=".1" stop-color="#f58e4b"/>
      <stop offset=".12" stop-color="#f69c60"/>
      <stop offset=".14" stop-color="#f8ad7c"/>
      <stop offset=".16" stop-color="#f9c39e"/>
      <stop offset=".18" stop-color="#fcdcc7"/>
      <stop offset=".2" stop-color="#fef9f5"/>
      <stop offset=".2" stop-color="#fff"/>
      <stop offset=".8" stop-color="#fff"/>
      <stop offset=".81" stop-color="#fce7d9"/>
      <stop offset=".82" stop-color="#faceb1"/>
      <stop offset=".84" stop-color="#f9b88e"/>
      <stop offset=".85" stop-color="#f7a670"/>
      <stop offset=".87" stop-color="#f69759"/>
      <stop offset=".89" stop-color="#f58c46"/>
      <stop offset=".91" stop-color="#f48439"/>
      <stop offset=".94" stop-color="#f47f32"/>
      <stop offset="1" stop-color="#f47e30"/>
    </linearGradient>
  </defs>
  <path class="cls-2" d="M79.54,1c11.89,0,21.56,9.67,21.56,21.56s-9.67,21.56-21.56,21.56H22.56c-11.89,0-21.56-9.67-21.56-21.56S10.67,1,22.56,1h56.98M79.54,0H22.56C10.1,0,0,10.1,0,22.56h0c0,12.46,10.1,22.56,22.56,22.56h56.98c12.46,0,22.56-10.1,22.56-22.56h0c0-12.46-10.1-22.56-22.56-22.56h0Z"/>
  <rect class="cls-1" x="4.44" y="2.78" width="93.22" height="39.57" rx="19.79" ry="19.79"/>
</svg>